# xmcd
#
# Track frame offsets:
#	150
#	9964
#	26955
#	40621
#	50347
#	64013
#	75058
#	92732
#	105021
#	117419
#	136590
#	148267
#	164789
#	168683
#	180893
#	202672
#	208797
#	217109
#	234627
#	242129
#
# Disc length: 3385 seconds
#
# Revision: 0
# Processed by: cddbd v1.5.1PL2 Copyright (c) Steve Scherf et al.
# Submitted via: EasyCDDAExtractor 4.6.9.1
#
DISCID=070d3714
DTITLE=Statler Brothers - Farewell Concert - CD 01
DYEAR=2003
DGENRE=Country
TTITLE0=Spoken - Welcome
TTITLE1=Spoken - Jimmy Dean Introduces
TTITLE2=Do You Remember These
TTITLE3=Do You Know You Are My Sunshine
TTITLE4=Spoken - The Statler Brothers Say Hello and Harold Tells A Story
TTITLE5=Susan When She Tried
TTITLE6=Too Much On My Heart
TTITLE7=Class Of '57
TTITLE8=Bed Of Roses
TTITLE9=Spoken - Phil Is Even Older
TTITLE10=Oh Baby Mine
TTITLE11=Moments To Remember
TTITLE12=Spoken - In The Studio With A Bunch Of Girl Backup Singers
TTITLE13=Memories Are Made Of This
TTITLE14=The Great Pretender
TTITLE15=Spoken - Stuff For Sale
TTITLE16=Whatever Happened To Randolph Scott
TTITLE17=More Than A Name On A Wall
TTITLE18=Flowers On The Wall
TTITLE19=Elizabeth
EXTD=
EXTT0=
EXTT1=
EXTT2=
EXTT3=
EXTT4=
EXTT5=
EXTT6=
EXTT7=
EXTT8=
EXTT9=
EXTT10=
EXTT11=
EXTT12=
EXTT13=
EXTT14=
EXTT15=
EXTT16=
EXTT17=
EXTT18=
EXTT19=
PLAYORDER=
